<?xml version="1.0" encoding="UTF-8" standalone="no"?>
<!-- Generator: Adobe Illustrator 12.0.1, SVG Export Plug-In . SVG Version: 6.00 Build 51448)  -->

<svg
   version="1.1"
   id="Layer_1"
   width="502.007"
   height="344.818"
   viewBox="0 0 502.007 344.818"
   overflow="visible"
   enable-background="new 0 0 502.007 344.818"
   xml:space="preserve"
   sodipodi:docname="Airy_vs_gaus.svg"
   inkscape:export-filename="Airy_vs_gaus.png"
   inkscape:export-xdpi="300"
   inkscape:export-ydpi="300"
   inkscape:version="1.2.2 (732a01da63, 2022-12-09)"
   xmlns:inkscape="http://www.inkscape.org/namespaces/inkscape"
   xmlns:sodipodi="http://sodipodi.sourceforge.net/DTD/sodipodi-0.dtd"
   xmlns="http://www.w3.org/2000/svg"
   xmlns:svg="http://www.w3.org/2000/svg"><defs
   id="defs15" /><sodipodi:namedview
   id="namedview13"
   pagecolor="#ffffff"
   bordercolor="#000000"
   borderopacity="0.25"
   inkscape:showpageshadow="2"
   inkscape:pageopacity="0.0"
   inkscape:pagecheckerboard="0"
   inkscape:deskcolor="#d1d1d1"
   showgrid="false"
   inkscape:zoom="2.410325"
   inkscape:cx="251.00349"
   inkscape:cy="172.59083"
   inkscape:window-width="2560"
   inkscape:window-height="1369"
   inkscape:window-x="-8"
   inkscape:window-y="-8"
   inkscape:window-maximized="1"
   inkscape:current-layer="Layer_1" />
<g
   id="g10">
	<path
   fill="none"
   stroke="#000000"
   stroke-width="1.25"
   stroke-miterlimit="2.5"
   d="M59.205,295.429h442.177 M77.063,295.429   v-8.845 M76.014,308.241l-1.587,0.538l-1.077,1.588l-0.51,2.636v1.616l0.51,2.636l1.077,1.588l1.587,0.538h1.049l1.587-0.538   l1.077-1.588l0.539-2.636v-1.616l-0.539-2.636l-1.077-1.588l-1.587-0.538H76.014 M188.465,295.429v-8.845 M185.829,310.367   l1.049-0.539l1.587-1.587v11.14 M299.895,295.429v-8.845 M296.181,310.905v-0.538l0.511-1.049l0.538-0.539l1.077-0.538h2.098   l1.078,0.538l0.51,0.539l0.539,1.049v1.049l-0.539,1.077l-1.049,1.587l-5.301,5.301h7.427 M411.296,295.429v-8.845    M408.122,308.241h5.812l-3.175,4.252h1.587l1.077,0.51l0.511,0.539l0.538,1.587v1.077l-0.538,1.588l-1.049,1.049l-1.588,0.538   h-1.587l-1.588-0.538l-0.538-0.539l-0.539-1.049 M65.923,295.429v-4.422 M88.204,295.429v-4.422 M99.344,295.429v-4.422    M110.484,295.429v-4.422 M121.624,295.429v-4.422 M132.764,295.429v-4.422 M143.904,295.429v-4.422 M155.044,295.429v-4.422    M166.185,295.429v-4.422 M177.325,295.429v-4.422 M199.633,295.429v-4.422 M210.773,295.429v-4.422 M221.914,295.429v-4.422    M233.054,295.429v-4.422 M244.194,295.429v-4.422 M255.334,295.429v-4.422 M266.474,295.429v-4.422 M277.615,295.429v-4.422    M288.754,295.429v-4.422 M311.036,295.429v-4.422 M322.175,295.429v-4.422 M333.316,295.429v-4.422 M344.456,295.429v-4.422    M355.596,295.429v-4.422 M366.736,295.429v-4.422 M377.876,295.429v-4.422 M389.016,295.429v-4.422 M400.157,295.429v-4.422    M422.437,295.429v-4.422 M433.577,295.429v-4.422 M444.717,295.429v-4.422 M455.858,295.429v-4.422 M466.998,295.429v-4.422    M478.138,295.429v-4.422 M489.278,295.429v-4.422 M500.418,295.429v-4.422 M136.959,332.704v7.427 M136.959,335.879l0.51-1.587   l1.077-1.049l1.049-0.539h1.587 M149.659,332.704v7.427 M149.659,334.292l-1.049-1.049l-1.077-0.539h-1.587l-1.049,0.539   l-1.049,1.049l-0.539,1.587v1.077l0.539,1.588l1.049,1.049l1.049,0.538h1.587l1.077-0.538l1.049-1.049 M159.722,328.99v11.141    M159.722,334.292l-1.049-1.049l-1.049-0.539h-1.587l-1.077,0.539l-1.049,1.049l-0.539,1.587v1.077l0.539,1.588l1.049,1.049   l1.077,0.538h1.587l1.049-0.538l1.049-1.049 M163.435,328.99l0.539,0.539l0.539-0.539l-0.539-0.51L163.435,328.99 M163.974,332.704   v7.427 M174.037,332.704v7.427 M174.037,334.292l-1.049-1.049l-1.077-0.539h-1.587l-1.049,0.539l-1.077,1.049l-0.51,1.587v1.077   l0.51,1.588l1.077,1.049l1.049,0.538h1.587l1.077-0.538l1.049-1.049 M178.289,328.99v11.141 M196.827,334.292l-1.049-1.049   l-1.077-0.539h-1.587l-1.049,0.539l-1.077,1.049l-0.51,1.587v1.077l0.51,1.588l1.077,1.049l1.049,0.538h1.587l1.077-0.538   l1.049-1.049 M202.667,332.704l-1.077,0.539l-1.049,1.049l-0.539,1.587v1.077l0.539,1.588l1.049,1.049l1.077,0.538h1.587   l1.049-0.538l1.077-1.049l0.51-1.588v-1.077l-0.51-1.587l-1.077-1.049l-1.049-0.539H202.667 M212.729,332.704l-1.077,0.539   l-1.049,1.049l-0.539,1.587v1.077l0.539,1.588l1.049,1.049l1.077,0.538h1.587l1.049-0.538l1.077-1.049l0.51-1.588v-1.077   l-0.51-1.587l-1.077-1.049l-1.049-0.539H212.729 M220.667,332.704v7.427 M220.667,335.879l0.539-1.587l1.049-1.049l1.077-0.539   h1.587 M233.394,328.99v11.141 M233.394,334.292l-1.049-1.049l-1.077-0.539h-1.587l-1.049,0.539l-1.077,1.049l-0.51,1.587v1.077   l0.51,1.588l1.077,1.049l1.049,0.538h1.587l1.077-0.538l1.049-1.049 M238.156,339.082l-0.51,0.511l0.51,0.538l0.539-0.538   L238.156,339.082 M255.108,326.893l-1.049,1.049l-1.049,1.588l-1.077,2.126l-0.511,2.636v2.126l0.511,2.665l1.077,2.636   l1.049,1.588l1.049,1.077 M258.311,328.99l0.51,0.539l0.539-0.539l-0.539-0.51L258.311,328.99 M258.821,332.704v7.427    M263.073,332.704v7.427 M263.073,334.83l1.588-1.587l1.049-0.539h1.587l1.077,0.539l0.511,1.587v5.301 M281.612,332.704v5.301   l0.538,1.588l1.049,0.538h1.588l1.077-0.538l1.587-1.588 M287.451,332.704v7.427 M291.674,332.704v7.427 M291.674,334.83   l1.588-1.587l1.077-0.539h1.587l1.049,0.539l0.539,1.587v5.301 M301.227,328.99l0.539,0.539l0.51-0.539l-0.51-0.51L301.227,328.99    M301.766,332.704v7.427 M306.528,328.99v9.015l0.539,1.588l1.049,0.538h1.049 M304.941,332.704h3.713 M317.64,334.292   l-0.511-1.049l-1.587-0.539h-1.588l-1.615,0.539l-0.511,1.049l0.511,1.076l1.077,0.511l2.636,0.538l1.077,0.539l0.511,1.049v0.539   l-0.511,1.049l-1.587,0.538h-1.588l-1.615-0.538l-0.511-1.049 M331.955,332.704l-1.049,0.539l-1.077,1.049l-0.51,1.587v1.077   l0.51,1.588l1.077,1.049l1.049,0.538h1.588l1.077-0.538l1.049-1.049l0.538-1.588v-1.077l-0.538-1.587l-1.049-1.049l-1.077-0.539   H331.955 M343.095,328.99h-1.077l-1.049,0.539l-0.539,1.587v9.015 M338.843,332.704h3.713 M354.207,328.99h1.077l1.049,0.539   l0.539,0.538l0.538,1.049l3.175,7.428l0.511,1.049l0.538,0.538 M355.284,328.99l1.049,1.077l0.539,1.049l3.175,7.428l0.538,1.049   l1.049,0.538h0.539 M357.92,332.704l-4.224,7.427 M357.92,332.704l-3.714,7.427 M373.823,328.99v11.141 M373.823,328.99h6.888    M373.823,334.292h4.252 M383.375,332.704v7.427 M383.375,334.83l1.587-1.587l1.049-0.539h1.588l1.077,0.539l0.51,1.587v5.301    M393.438,332.704v5.301l0.511,1.588l1.077,0.538h1.588l1.049-0.538l1.587-1.588 M399.25,332.704v7.427 M403.501,332.704v7.427    M403.501,334.83l1.587-1.587l1.049-0.539h1.616l1.049,0.539l0.538,1.587v5.301 M409.341,334.83l1.587-1.587l1.049-0.539h1.588   l1.077,0.539l0.51,1.587v5.301 M418.866,326.893l1.049,1.049l1.077,1.588l1.049,2.126l0.538,2.636v2.126l-0.538,2.665l-1.049,2.636   l-1.077,1.588l-1.049,1.077 M59.205,0.625h442.177 M77.063,0.625v8.844 M188.465,0.625v8.844 M299.895,0.625v8.844 M411.296,0.625   v8.844 M65.923,0.625v4.422 M88.204,0.625v4.422 M99.344,0.625v4.422 M110.484,0.625v4.422 M121.624,0.625v4.422 M132.764,0.625   v4.422 M143.904,0.625v4.422 M155.044,0.625v4.422 M166.185,0.625v4.422 M177.325,0.625v4.422 M199.633,0.625v4.422 M210.773,0.625   v4.422 M221.914,0.625v4.422 M233.054,0.625v4.422 M244.194,0.625v4.422 M255.334,0.625v4.422 M266.474,0.625v4.422 M277.615,0.625   v4.422 M288.754,0.625v4.422 M311.036,0.625v4.422 M322.175,0.625v4.422 M333.316,0.625v4.422 M344.456,0.625v4.422 M355.596,0.625   v4.422 M366.736,0.625v4.422 M377.876,0.625v4.422 M389.016,0.625v4.422 M400.157,0.625v4.422 M422.437,0.625v4.422 M433.577,0.625   v4.422 M444.717,0.625v4.422 M455.858,0.625v4.422 M466.998,0.625v4.422 M478.138,0.625v4.422 M489.278,0.625v4.422 M500.418,0.625   v4.422 M59.205,295.429V0.625 M59.205,281.396h13.266 M31.907,276.635l-1.587,0.538l-1.049,1.588l-0.539,2.664v1.588l0.539,2.636   l1.049,1.588l1.587,0.538h1.049l1.616-0.538l1.049-1.588l0.539-2.636v-1.588l-0.539-2.664l-1.049-1.588l-1.616-0.538H31.907    M40.383,286.726l-0.539,0.511l0.539,0.538l0.539-0.538L40.383,286.726 M47.81,276.635l-1.587,0.538l-1.077,1.588l-0.51,2.664   v1.588l0.51,2.636l1.077,1.588l1.587,0.538h1.049l1.587-0.538l1.077-1.588l0.51-2.636v-1.588l-0.51-2.664l-1.077-1.588   l-1.587-0.538H47.81 M59.205,227.907h13.266 M31.907,223.173l-1.587,0.539l-1.049,1.587l-0.539,2.637v1.587l0.539,2.665   l1.049,1.587l1.587,0.511h1.049l1.616-0.511l1.049-1.587l0.539-2.665v-1.587l-0.539-2.637l-1.049-1.587l-1.616-0.539H31.907    M40.383,233.236l-0.539,0.538l0.539,0.511l0.539-0.511L40.383,233.236 M45.145,225.81v-0.511l0.539-1.077l0.539-0.51l1.049-0.539   h2.126l1.049,0.539l0.539,0.51l0.539,1.077v1.049l-0.539,1.049l-1.049,1.588l-5.301,5.301h7.398 M59.205,174.445h13.266    M31.907,169.684l-1.587,0.538l-1.049,1.588l-0.539,2.636v1.616l0.539,2.636l1.049,1.588l1.587,0.538h1.049l1.616-0.538   l1.049-1.588l0.539-2.636v-1.616l-0.539-2.636l-1.049-1.588l-1.616-0.538H31.907 M40.383,179.746l-0.539,0.539l0.539,0.538   l0.539-0.538L40.383,179.746 M49.936,169.684l-5.301,7.427h7.937 M49.936,169.684v11.14 M59.205,120.956h13.266 M31.907,116.222   l-1.587,0.51l-1.049,1.587l-0.539,2.665v1.587l0.539,2.636l1.049,1.587l1.587,0.539h1.049l1.616-0.539l1.049-1.587l0.539-2.636   v-1.587l-0.539-2.665l-1.049-1.587l-1.616-0.51H31.907 M40.383,126.285l-0.539,0.51l0.539,0.539l0.539-0.539L40.383,126.285    M51.523,117.809l-0.539-1.077l-1.587-0.51h-1.049l-1.616,0.51l-1.049,1.587l-0.539,2.665v2.636l0.539,2.126l1.049,1.049   l1.616,0.539h0.51l1.587-0.539l1.077-1.049l0.51-1.587v-0.539l-0.51-1.587l-1.077-1.049l-1.587-0.539h-0.51l-1.616,0.539   l-1.049,1.049l-0.539,1.587 M59.205,67.466h13.266 M31.907,62.732l-1.587,0.539l-1.049,1.587l-0.539,2.636v1.587l0.539,2.665   l1.049,1.587l1.587,0.539h1.049l1.616-0.539l1.049-1.587l0.539-2.665v-1.587l-0.539-2.636l-1.049-1.587l-1.616-0.539H31.907    M40.383,72.795l-0.539,0.539l0.539,0.539l0.539-0.539L40.383,72.795 M47.271,62.732l-1.587,0.539l-0.539,1.049v1.049l0.539,1.077   l1.049,0.539l2.126,0.51l1.587,0.539l1.077,1.049l0.51,1.077v1.587l-0.51,1.049l-0.539,0.539l-1.587,0.539h-2.126l-1.587-0.539   l-0.539-0.539l-0.51-1.049v-1.587l0.51-1.077l1.077-1.049l1.587-0.539l2.126-0.51l1.049-0.539l0.539-1.077v-1.049l-0.539-1.049   l-1.587-0.539H47.271 M59.205,14.004h13.266 M30.32,11.368l1.049-0.539l1.587-1.587v11.14 M40.383,19.333l-0.539,0.51l0.539,0.539   l0.539-0.539L40.383,19.333 M47.81,9.242l-1.587,0.539l-1.077,1.587l-0.51,2.665v1.587l0.51,2.636l1.077,1.587l1.587,0.539h1.049   l1.587-0.539l1.077-1.587l0.51-2.636v-1.587l-0.51-2.665l-1.077-1.587l-1.587-0.539H47.81 M59.205,294.748h6.633 M59.205,268.018   h6.633 M59.205,254.638h6.633 M59.205,241.286h6.633 M59.205,214.527h6.633 M59.205,201.177h6.633 M59.205,187.797h6.633    M59.205,161.066h6.633 M59.205,147.687h6.633 M59.205,134.335h6.633 M59.205,107.576h6.633 M59.205,94.225h6.633 M59.205,80.845   h6.633 M59.205,54.115h6.633 M59.205,40.735h6.633 M59.205,27.355h6.633 M59.205,0.625h6.633 M5.148,255.856h7.427 M7.274,255.856   l-1.587-1.587l-0.539-1.049v-1.588l0.539-1.077l1.587-0.51h5.301 M5.148,243.668l0.539,1.077l1.049,1.049l1.587,0.538H9.4   l1.587-0.538l1.049-1.049l0.539-1.077v-1.588l-0.539-1.049l-1.049-1.049L9.4,239.444H8.323l-1.587,0.538l-1.049,1.049l-0.539,1.049   V243.668 M5.148,235.73h7.427 M8.323,235.73l-1.587-0.538l-1.049-1.049l-0.539-1.049v-1.616 M5.148,228.843h7.427 M7.274,228.843   l-1.587-1.588l-0.539-1.077v-1.587l0.539-1.049l1.587-0.539h5.301 M7.274,223.003l-1.587-1.587l-0.539-1.049v-1.588l0.539-1.077   l1.587-0.51h5.301 M5.148,207.101h7.427 M6.735,207.101l-1.049,1.077l-0.539,1.049v1.588l0.539,1.077l1.049,1.049l1.587,0.538H9.4   l1.587-0.538l1.049-1.049l0.539-1.077v-1.588l-0.539-1.049l-1.049-1.077 M1.435,202.877h11.14 M1.435,199.164l0.539-0.539   l-0.539-0.51l-0.539,0.51L1.435,199.164 M5.148,198.625h7.427 M5.148,189.101l7.427,5.812 M5.148,194.912v-5.812 M12.575,194.912   v-5.812 M8.323,185.926v-6.378H7.274l-1.077,0.539l-0.51,0.538l-0.539,1.049v1.588l0.539,1.077l1.049,1.049L8.323,185.926H9.4   l1.587-0.538l1.049-1.049l0.539-1.077v-1.588l-0.539-1.049l-1.049-1.077 M1.435,170.023h11.14 M6.735,170.023l-1.049,1.049   l-0.539,1.077v1.588l0.539,1.049l1.049,1.049l1.587,0.538H9.4l1.587-0.538l1.049-1.049l0.539-1.049v-1.588l-0.539-1.077   l-1.049-1.049 M1.435,157.296h11.14"
   id="path2" />
	<path
   fill="none"
   stroke="#000000"
   stroke-width="1.25"
   stroke-miterlimit="2.5"
   d="M1.435,157.296v-4.762l0.539-1.587l0.51-0.539   l1.077-0.539h1.587l1.049,0.539l0.539,0.539l0.539,1.587v4.762 M3.022,139.296l-1.049,1.049l-0.539,1.587v2.126l0.539,1.587   l1.049,1.049h1.077l1.049-0.51l0.539-0.539l0.51-1.077l1.077-3.175l0.51-1.049l0.539-0.539l1.077-0.51h1.587l1.049,1.049   l0.539,1.587v2.126l-0.539,1.587l-1.049,1.049 M1.435,135.583h11.14 M1.435,135.583v-6.888 M6.735,135.583v-4.252 M5.148,111.715   h7.427 M6.735,111.715l-1.049,1.077l-0.539,1.049v1.587l0.539,1.077l1.049,1.049l1.587,0.539H9.4l1.587-0.539l1.049-1.049   l0.539-1.077v-1.587l-0.539-1.049l-1.049-1.077 M5.148,107.491h7.427 M7.274,107.491l-1.587-1.587l-0.539-1.077v-1.587l0.539-1.049   l1.587-0.539h5.301 M7.274,101.652l-1.587-1.587l-0.539-1.049v-1.587l0.539-1.077l1.587-0.51h5.301 M5.148,91.589h11.65    M6.735,91.589L5.687,90.54l-0.539-1.077v-1.587l0.539-1.049l1.049-1.077l1.587-0.51H9.4l1.587,0.51l1.049,1.077l0.539,1.049v1.587   l-0.539,1.077l-1.049,1.049 M1.435,81.526h11.14 M1.435,77.813l0.539-0.539l-0.539-0.51l-0.539,0.51L1.435,77.813 M5.148,77.274   h7.427 M1.435,72.512h9.014l1.587-0.539l0.539-1.049v-1.049 M5.148,74.099v-3.713 M5.148,66.672h5.301l1.587-0.51l0.539-1.077   v-1.587l-0.539-1.049l-1.587-1.587 M5.148,60.861h7.427 M1.435,50.798h11.14 M6.735,50.798l-1.049,1.049l-0.539,1.049v1.587   l0.539,1.077l1.049,1.049l1.587,0.539H9.4l1.587-0.539l1.049-1.049l0.539-1.077v-1.587l-0.539-1.049l-1.049-1.049 M8.323,47.085   v-6.378H7.274l-1.077,0.539l-0.51,0.539l-0.539,1.049v1.587l0.539,1.077l1.049,1.049L8.323,47.085H9.4l1.587-0.539l1.049-1.049   l0.539-1.077v-1.587l-0.539-1.049l-1.049-1.077 M501.382,295.429V0.625 M501.382,281.396h-13.267 M501.382,227.907h-13.267    M501.382,174.445h-13.267 M501.382,120.956h-13.267 M501.382,67.466h-13.267 M501.382,14.004h-13.267 M501.382,294.748h-6.634    M501.382,268.018h-6.634 M501.382,254.638h-6.634 M501.382,241.286h-6.634 M501.382,214.527h-6.634 M501.382,201.177h-6.634    M501.382,187.797h-6.634 M501.382,161.066h-6.634 M501.382,147.687h-6.634 M501.382,134.335h-6.634 M501.382,107.576h-6.634    M501.382,94.225h-6.634 M501.382,80.845h-6.634 M501.382,54.115h-6.634 M501.382,40.735h-6.634 M501.382,27.355h-6.634    M501.382,0.625h-6.634"
   id="path4" />
	<polyline
   fill="none"
   stroke="#000000"
   stroke-width="1.25"
   stroke-miterlimit="2.5"
   stroke-dasharray="5.6693 5.6693"
   points="   80.266,14.515 81.57,15.025 84.178,16.527 87.126,19.05 90.188,22.537 93.306,26.959 96.424,32.26 99.57,38.382 102.745,45.242    105.892,52.811 109.066,60.946 112.241,69.648 115.416,78.748 118.563,88.215 121.737,97.938 124.912,107.831 128.087,117.809    131.29,127.815 134.465,137.765 137.64,147.573 140.814,157.183 143.989,166.565 147.164,175.607 150.339,184.339 153.542,192.673    156.717,200.609 159.892,208.121 163.066,215.18 166.241,221.784 169.444,227.936 172.619,233.661 175.794,238.905    178.969,243.725 182.172,248.118 185.347,252.144 188.521,255.743 191.696,259.003 194.899,261.923 198.074,264.531    201.249,266.827 204.424,268.868 207.627,270.682 210.802,272.241 213.977,273.602 217.152,274.792 220.355,275.841 223.53,276.72    226.705,277.485 229.879,278.137 233.083,278.676 236.257,279.157 239.432,279.555 242.635,279.866 245.81,280.149    248.985,280.377 252.16,280.575 255.363,280.717 258.538,280.858 261.712,280.972 264.887,281.057 268.09,281.113 271.265,281.17    274.44,281.227 277.615,281.255 280.818,281.283 283.993,281.312 287.167,281.312 290.371,281.341 293.545,281.341 296.72,281.369    299.895,281.369 303.098,281.369 306.273,281.369 309.448,281.369 312.651,281.369 315.826,281.397 319,281.397 322.175,281.397    325.378,281.397 328.553,281.397 331.728,281.397 334.931,281.397 338.106,281.397 341.281,281.397 344.456,281.397    347.659,281.397 350.833,281.397 354.008,281.397 357.183,281.397 360.386,281.397 363.561,281.397 366.736,281.397    369.939,281.397 373.114,281.397 376.289,281.397 379.463,281.397 382.667,281.397 385.841,281.397 389.016,281.397    392.219,281.397 395.394,281.397 398.569,281.397 401.744,281.397 404.947,281.397 408.122,281.397 411.296,281.397 414.5,281.397    417.674,281.397 420.85,281.397 424.024,281.397 427.228,281.397 430.403,281.397 433.578,281.397 436.781,281.397    439.956,281.397 443.13,281.397 446.305,281.397 449.508,281.397 452.683,281.397 455.858,281.397 459.061,281.397    462.236,281.397 465.411,281.397 468.585,281.397 471.789,281.397 474.963,281.397 478.138,281.397 481.341,281.397  "
   id="polyline6" />
	<polyline
   fill="none"
   stroke="#000000"
   stroke-width="1.25"
   stroke-miterlimit="2.5"
   points="80.266,14.004 81.57,14.43    84.178,15.762 87.126,17.973 90.188,21.034 93.306,24.946 96.424,29.624 99.57,35.094 102.745,41.245 105.892,48.105    109.066,55.561 112.241,63.554 115.416,72.058 118.563,80.987 121.737,90.256 124.912,99.837 128.087,109.617 131.29,119.567    134.465,129.602 137.64,139.636 140.814,149.643 143.989,159.507 147.164,169.229 150.339,178.697 153.542,187.91 156.717,196.782    159.892,205.315 163.066,213.422 166.241,221.104 169.444,228.332 172.619,235.079 175.794,241.344 178.969,247.098    182.172,252.37 185.347,257.132 188.521,261.384 191.696,265.183 194.899,268.499 198.074,271.362 201.249,273.8 204.424,275.841    207.627,277.514 210.802,278.846 213.977,279.838 217.152,280.575 220.355,281.057 223.53,281.312 226.705,281.396    229.879,281.312 233.083,281.113 236.257,280.802 239.432,280.405 242.635,279.979 245.81,279.526 248.985,279.072 252.16,278.619    255.363,278.193 258.538,277.825 261.712,277.485 264.887,277.202 268.09,276.975 271.265,276.833 274.44,276.72 277.615,276.691    280.818,276.748 283.993,276.833 287.167,276.975 290.371,277.173 293.545,277.4 296.72,277.684 299.895,277.967 303.098,278.279    306.273,278.619 309.448,278.931 312.651,279.271 315.826,279.583 319,279.895 322.175,280.178 325.378,280.434 328.553,280.66    331.728,280.858 334.931,281.028 338.106,281.17 341.281,281.255 344.456,281.34 347.659,281.368 350.833,281.397 354.008,281.368    357.183,281.34 360.386,281.283 363.561,281.198 366.736,281.113 369.939,281.028 373.114,280.943 376.289,280.83 379.463,280.745    382.667,280.632 385.841,280.547 389.016,280.462 392.219,280.405 395.394,280.348 398.569,280.319 401.744,280.291    404.947,280.263 408.122,280.291 411.296,280.291 414.5,280.348 417.674,280.376 420.85,280.434 424.024,280.49 427.228,280.575    430.403,280.66 433.578,280.745 436.781,280.802 439.956,280.887 443.13,280.972 446.305,281.057 449.508,281.113 452.683,281.198    455.858,281.255 459.061,281.283 462.236,281.34 465.411,281.368 468.585,281.368 471.789,281.397 474.963,281.397    478.138,281.397 481.341,281.368  "
   id="polyline8" />
</g>
</svg>
